<svg xmlns="http://www.w3.org/2000/svg" viewBox="0 0 128 128" role="img" aria-labelledby="title desc">
  <title id="title">OnlyBackup mark</title>
  <desc id="desc">Compact OB shield mark for OnlyBackup.</desc>
  <defs>
    <linearGradient id="bg" x1="18" y1="14" x2="112" y2="118" gradientUnits="userSpaceOnUse">
      <stop offset="0" stop-color="#60a5fa"/>
      <stop offset="1" stop-color="#38bdf8"/>
    </linearGradient>
    <linearGradient id="panel" x1="34" y1="30" x2="94" y2="98" gradientUnits="userSpaceOnUse">
      <stop offset="0" stop-color="#0f172a"/>
      <stop offset="1" stop-color="#141b2d"/>
    </linearGradient>
  </defs>
  <rect width="128" height="128" rx="24" fill="#0a0f1c"/>
  <path d="M64 14 104 30v30c0 25-16 45-40 54-24-9-40-29-40-54V30l40-16Z" fill="url(#bg)"/>
  <path d="M64 24 94 36v23c0 19-12 34-30 42-18-8-30-23-30-42V36l30-12Z" fill="url(#panel)"/>
  <path d="M45 58a19 19 0 1 1 0 22V58Zm0 8v6a10 10 0 1 0 0-6Z" fill="#f8fafc"/>
  <path d="M68 46h19c8 0 14 5 14 12 0 4-2 8-6 10 5 2 8 7 8 13 0 8-7 14-16 14H68V46Zm10 9v10h8c3 0 5-2 5-5s-2-5-5-5h-8Zm0 19v12h9c4 0 6-2 6-6s-2-6-6-6h-9Z" fill="#f8fafc"/>
  <path d="M31 87c9 12 20 20 33 25 13-5 24-13 33-25" fill="none" stroke="#38bdf8" stroke-width="5" stroke-linecap="round"/>
</svg>
